<mxfile host="app.diagrams.net" modified="2021-02-17T16:43:33.244Z" agent="5.0 (X11)" etag="4KDVJ_0yYwx1wuao6naJ" version="14.4.0" type="github">
  <diagram id="R2lEEEUBdFMjLlhIrx00" name="Page-1">
    <mxGraphModel dx="1953" dy="656" grid="1" gridSize="10" guides="1" tooltips="1" connect="1" arrows="1" fold="1" page="1" pageScale="1" pageWidth="827" pageHeight="1169" math="0" shadow="0" extFonts="Permanent Marker^https://fonts.googleapis.com/css?family=Permanent+Marker">
      <root>
        <mxCell id="0" />
        <mxCell id="1" parent="0" />
        <mxCell id="dDWBz8e4I7Z4TFTTQ-KN-4" style="rounded=0;orthogonalLoop=1;jettySize=auto;html=1;entryX=1;entryY=0.5;entryDx=0;entryDy=0;exitX=0.25;exitY=1;exitDx=0;exitDy=0;endArrow=none;endFill=0;" edge="1" parent="1" source="dDWBz8e4I7Z4TFTTQ-KN-2" target="dDWBz8e4I7Z4TFTTQ-KN-3">
          <mxGeometry relative="1" as="geometry" />
        </mxCell>
        <mxCell id="dDWBz8e4I7Z4TFTTQ-KN-9" style="rounded=0;orthogonalLoop=1;jettySize=auto;html=1;exitX=0.25;exitY=0;exitDx=0;exitDy=0;entryX=1;entryY=0.5;entryDx=0;entryDy=0;endArrow=none;endFill=0;" edge="1" parent="1" source="dDWBz8e4I7Z4TFTTQ-KN-2" target="dDWBz8e4I7Z4TFTTQ-KN-6">
          <mxGeometry relative="1" as="geometry" />
        </mxCell>
        <mxCell id="dDWBz8e4I7Z4TFTTQ-KN-10" style="rounded=0;orthogonalLoop=1;jettySize=auto;html=1;exitX=0.75;exitY=0;exitDx=0;exitDy=0;entryX=0;entryY=0.5;entryDx=0;entryDy=0;endArrow=none;endFill=0;" edge="1" parent="1" source="dDWBz8e4I7Z4TFTTQ-KN-2" target="dDWBz8e4I7Z4TFTTQ-KN-7">
          <mxGeometry relative="1" as="geometry" />
        </mxCell>
        <mxCell id="dDWBz8e4I7Z4TFTTQ-KN-13" style="rounded=0;orthogonalLoop=1;jettySize=auto;html=1;entryX=0;entryY=0.5;entryDx=0;entryDy=0;exitX=0.75;exitY=1;exitDx=0;exitDy=0;endArrow=none;endFill=0;" edge="1" parent="1" source="dDWBz8e4I7Z4TFTTQ-KN-2" target="dDWBz8e4I7Z4TFTTQ-KN-12">
          <mxGeometry relative="1" as="geometry" />
        </mxCell>
        <mxCell id="dDWBz8e4I7Z4TFTTQ-KN-2" value="GYM" style="whiteSpace=wrap;html=1;align=center;fillColor=#f5f5f5;strokeColor=#666666;fontColor=#333333;" vertex="1" parent="1">
          <mxGeometry x="-50" y="120" width="100" height="40" as="geometry" />
        </mxCell>
        <mxCell id="dDWBz8e4I7Z4TFTTQ-KN-3" value="GymID" style="ellipse;whiteSpace=wrap;html=1;align=center;fontStyle=4;" vertex="1" parent="1">
          <mxGeometry x="-150" y="185" width="100" height="40" as="geometry" />
        </mxCell>
        <mxCell id="dDWBz8e4I7Z4TFTTQ-KN-6" value="Location" style="ellipse;whiteSpace=wrap;html=1;align=center;" vertex="1" parent="1">
          <mxGeometry x="-150" y="60" width="100" height="40" as="geometry" />
        </mxCell>
        <mxCell id="dDWBz8e4I7Z4TFTTQ-KN-7" value="DateOpened" style="ellipse;whiteSpace=wrap;html=1;align=center;" vertex="1" parent="1">
          <mxGeometry x="50" y="60" width="100" height="40" as="geometry" />
        </mxCell>
        <mxCell id="dDWBz8e4I7Z4TFTTQ-KN-41" style="rounded=0;orthogonalLoop=1;jettySize=auto;html=1;exitX=0.25;exitY=0;exitDx=0;exitDy=0;entryX=1;entryY=0.5;entryDx=0;entryDy=0;endArrow=none;endFill=0;" edge="1" parent="1" source="dDWBz8e4I7Z4TFTTQ-KN-11" target="dDWBz8e4I7Z4TFTTQ-KN-17">
          <mxGeometry relative="1" as="geometry" />
        </mxCell>
        <mxCell id="dDWBz8e4I7Z4TFTTQ-KN-42" style="rounded=0;orthogonalLoop=1;jettySize=auto;html=1;exitX=0.25;exitY=1;exitDx=0;exitDy=0;entryX=1;entryY=0.5;entryDx=0;entryDy=0;endArrow=none;endFill=0;" edge="1" parent="1" source="dDWBz8e4I7Z4TFTTQ-KN-11" target="dDWBz8e4I7Z4TFTTQ-KN-18">
          <mxGeometry relative="1" as="geometry" />
        </mxCell>
        <mxCell id="dDWBz8e4I7Z4TFTTQ-KN-48" style="rounded=0;orthogonalLoop=1;jettySize=auto;html=1;exitX=0.75;exitY=1;exitDx=0;exitDy=0;entryX=0;entryY=0.5;entryDx=0;entryDy=0;endArrow=none;endFill=0;" edge="1" parent="1" source="dDWBz8e4I7Z4TFTTQ-KN-11" target="dDWBz8e4I7Z4TFTTQ-KN-47">
          <mxGeometry relative="1" as="geometry" />
        </mxCell>
        <mxCell id="dDWBz8e4I7Z4TFTTQ-KN-116" style="edgeStyle=none;orthogonalLoop=1;jettySize=auto;html=1;exitX=0.75;exitY=0;exitDx=0;exitDy=0;entryX=0;entryY=0.5;entryDx=0;entryDy=0;endArrow=none;endFill=0;strokeColor=#000000;" edge="1" parent="1" source="dDWBz8e4I7Z4TFTTQ-KN-11" target="dDWBz8e4I7Z4TFTTQ-KN-14">
          <mxGeometry relative="1" as="geometry" />
        </mxCell>
        <mxCell id="dDWBz8e4I7Z4TFTTQ-KN-120" style="edgeStyle=none;orthogonalLoop=1;jettySize=auto;html=1;exitX=0.5;exitY=1;exitDx=0;exitDy=0;entryX=0.5;entryY=0;entryDx=0;entryDy=0;endArrow=none;endFill=0;strokeColor=#000000;" edge="1" parent="1" source="dDWBz8e4I7Z4TFTTQ-KN-11" target="dDWBz8e4I7Z4TFTTQ-KN-119">
          <mxGeometry relative="1" as="geometry" />
        </mxCell>
        <mxCell id="dDWBz8e4I7Z4TFTTQ-KN-122" style="edgeStyle=none;orthogonalLoop=1;jettySize=auto;html=1;exitX=0.5;exitY=0;exitDx=0;exitDy=0;entryX=0.5;entryY=1;entryDx=0;entryDy=0;endArrow=none;endFill=0;strokeColor=#000000;" edge="1" parent="1" source="dDWBz8e4I7Z4TFTTQ-KN-11" target="dDWBz8e4I7Z4TFTTQ-KN-150">
          <mxGeometry relative="1" as="geometry">
            <mxPoint x="417" y="160" as="targetPoint" />
          </mxGeometry>
        </mxCell>
        <mxCell id="dDWBz8e4I7Z4TFTTQ-KN-131" style="edgeStyle=none;orthogonalLoop=1;jettySize=auto;html=1;exitX=0;exitY=0.5;exitDx=0;exitDy=0;entryX=1;entryY=0.5;entryDx=0;entryDy=0;endArrow=none;endFill=0;strokeColor=#000000;" edge="1" parent="1" source="dDWBz8e4I7Z4TFTTQ-KN-11" target="dDWBz8e4I7Z4TFTTQ-KN-50">
          <mxGeometry relative="1" as="geometry" />
        </mxCell>
        <mxCell id="dDWBz8e4I7Z4TFTTQ-KN-136" style="edgeStyle=none;orthogonalLoop=1;jettySize=auto;html=1;exitX=1;exitY=0.5;exitDx=0;exitDy=0;entryX=0;entryY=0.5;entryDx=0;entryDy=0;endArrow=none;endFill=0;strokeColor=#000000;" edge="1" parent="1" source="dDWBz8e4I7Z4TFTTQ-KN-11" target="dDWBz8e4I7Z4TFTTQ-KN-135">
          <mxGeometry relative="1" as="geometry" />
        </mxCell>
        <mxCell id="dDWBz8e4I7Z4TFTTQ-KN-11" value="MEMBER" style="whiteSpace=wrap;html=1;align=center;fillColor=#f5f5f5;strokeColor=#666666;fontColor=#333333;" vertex="1" parent="1">
          <mxGeometry x="367" y="420" width="100" height="40" as="geometry" />
        </mxCell>
        <mxCell id="dDWBz8e4I7Z4TFTTQ-KN-12" value="HasPool" style="ellipse;whiteSpace=wrap;html=1;align=center;" vertex="1" parent="1">
          <mxGeometry x="50" y="185" width="100" height="40" as="geometry" />
        </mxCell>
        <mxCell id="dDWBz8e4I7Z4TFTTQ-KN-54" style="rounded=0;orthogonalLoop=1;jettySize=auto;html=1;exitX=1;exitY=0;exitDx=0;exitDy=0;entryX=0;entryY=0.5;entryDx=0;entryDy=0;endArrow=none;endFill=0;" edge="1" parent="1" source="dDWBz8e4I7Z4TFTTQ-KN-14" target="dDWBz8e4I7Z4TFTTQ-KN-51">
          <mxGeometry relative="1" as="geometry" />
        </mxCell>
        <mxCell id="dDWBz8e4I7Z4TFTTQ-KN-55" style="rounded=0;orthogonalLoop=1;jettySize=auto;html=1;exitX=1;exitY=0.5;exitDx=0;exitDy=0;entryX=0;entryY=0.5;entryDx=0;entryDy=0;endArrow=none;endFill=0;" edge="1" parent="1" source="dDWBz8e4I7Z4TFTTQ-KN-14" target="dDWBz8e4I7Z4TFTTQ-KN-52">
          <mxGeometry relative="1" as="geometry" />
        </mxCell>
        <mxCell id="dDWBz8e4I7Z4TFTTQ-KN-77" style="rounded=0;orthogonalLoop=1;jettySize=auto;html=1;exitX=1;exitY=1;exitDx=0;exitDy=0;entryX=0;entryY=0.5;entryDx=0;entryDy=0;endArrow=none;endFill=0;" edge="1" parent="1" source="dDWBz8e4I7Z4TFTTQ-KN-14" target="dDWBz8e4I7Z4TFTTQ-KN-53">
          <mxGeometry relative="1" as="geometry" />
        </mxCell>
        <mxCell id="dDWBz8e4I7Z4TFTTQ-KN-14" value="Name" style="ellipse;whiteSpace=wrap;html=1;align=center;" vertex="1" parent="1">
          <mxGeometry x="507.5" y="320" width="100" height="40" as="geometry" />
        </mxCell>
        <mxCell id="dDWBz8e4I7Z4TFTTQ-KN-143" style="edgeStyle=none;orthogonalLoop=1;jettySize=auto;html=1;exitX=0;exitY=1;exitDx=0;exitDy=0;entryX=1;entryY=0.5;entryDx=0;entryDy=0;endArrow=none;endFill=0;strokeColor=#000000;" edge="1" parent="1" source="dDWBz8e4I7Z4TFTTQ-KN-17" target="dDWBz8e4I7Z4TFTTQ-KN-142">
          <mxGeometry relative="1" as="geometry" />
        </mxCell>
        <mxCell id="dDWBz8e4I7Z4TFTTQ-KN-144" style="edgeStyle=none;orthogonalLoop=1;jettySize=auto;html=1;exitX=0;exitY=0;exitDx=0;exitDy=0;entryX=1;entryY=0.5;entryDx=0;entryDy=0;endArrow=none;endFill=0;strokeColor=#000000;" edge="1" parent="1" source="dDWBz8e4I7Z4TFTTQ-KN-17" target="dDWBz8e4I7Z4TFTTQ-KN-141">
          <mxGeometry relative="1" as="geometry" />
        </mxCell>
        <mxCell id="dDWBz8e4I7Z4TFTTQ-KN-17" value="Address" style="ellipse;whiteSpace=wrap;html=1;align=center;" vertex="1" parent="1">
          <mxGeometry x="267" y="360" width="100" height="40" as="geometry" />
        </mxCell>
        <mxCell id="dDWBz8e4I7Z4TFTTQ-KN-18" value="MemID" style="ellipse;whiteSpace=wrap;html=1;align=center;fontStyle=4;" vertex="1" parent="1">
          <mxGeometry x="267" y="485" width="100" height="40" as="geometry" />
        </mxCell>
        <mxCell id="dDWBz8e4I7Z4TFTTQ-KN-22" value="MemNo" style="ellipse;whiteSpace=wrap;html=1;align=center;fontStyle=4;" vertex="1" parent="1">
          <mxGeometry x="267" y="60" width="100" height="40" as="geometry" />
        </mxCell>
        <mxCell id="dDWBz8e4I7Z4TFTTQ-KN-24" value="StartDate" style="ellipse;whiteSpace=wrap;html=1;align=center;" vertex="1" parent="1">
          <mxGeometry x="467" y="60" width="100" height="40" as="geometry" />
        </mxCell>
        <mxCell id="dDWBz8e4I7Z4TFTTQ-KN-26" value="MonthlyFee" style="ellipse;whiteSpace=wrap;html=1;align=center;" vertex="1" parent="1">
          <mxGeometry x="267" y="180" width="100" height="40" as="geometry" />
        </mxCell>
        <mxCell id="dDWBz8e4I7Z4TFTTQ-KN-29" style="rounded=0;orthogonalLoop=1;jettySize=auto;html=1;exitX=0;exitY=0;exitDx=0;exitDy=0;entryX=1;entryY=0.5;entryDx=0;entryDy=0;endArrow=none;endFill=0;" edge="1" parent="1" source="dDWBz8e4I7Z4TFTTQ-KN-150" target="dDWBz8e4I7Z4TFTTQ-KN-22">
          <mxGeometry relative="1" as="geometry">
            <mxPoint x="392" y="120" as="sourcePoint" />
          </mxGeometry>
        </mxCell>
        <mxCell id="dDWBz8e4I7Z4TFTTQ-KN-30" style="rounded=0;orthogonalLoop=1;jettySize=auto;html=1;exitX=1;exitY=0;exitDx=0;exitDy=0;entryX=0;entryY=0.5;entryDx=0;entryDy=0;endArrow=none;endFill=0;" edge="1" parent="1" source="dDWBz8e4I7Z4TFTTQ-KN-150" target="dDWBz8e4I7Z4TFTTQ-KN-24">
          <mxGeometry relative="1" as="geometry">
            <mxPoint x="442" y="120" as="sourcePoint" />
          </mxGeometry>
        </mxCell>
        <mxCell id="dDWBz8e4I7Z4TFTTQ-KN-31" style="rounded=0;orthogonalLoop=1;jettySize=auto;html=1;exitX=0;exitY=1;exitDx=0;exitDy=0;entryX=1;entryY=0.5;entryDx=0;entryDy=0;endArrow=none;endFill=0;" edge="1" parent="1" source="dDWBz8e4I7Z4TFTTQ-KN-150" target="dDWBz8e4I7Z4TFTTQ-KN-26">
          <mxGeometry relative="1" as="geometry">
            <mxPoint x="392" y="160" as="sourcePoint" />
          </mxGeometry>
        </mxCell>
        <mxCell id="dDWBz8e4I7Z4TFTTQ-KN-32" style="rounded=0;orthogonalLoop=1;jettySize=auto;html=1;exitX=1;exitY=1;exitDx=0;exitDy=0;entryX=0;entryY=0.5;entryDx=0;entryDy=0;endArrow=none;endFill=0;" edge="1" parent="1" source="dDWBz8e4I7Z4TFTTQ-KN-150" target="dDWBz8e4I7Z4TFTTQ-KN-43">
          <mxGeometry relative="1" as="geometry">
            <mxPoint x="442" y="160" as="sourcePoint" />
            <mxPoint x="467" y="199.9999999999999" as="targetPoint" />
          </mxGeometry>
        </mxCell>
        <mxCell id="dDWBz8e4I7Z4TFTTQ-KN-43" value="MemType" style="ellipse;whiteSpace=wrap;html=1;align=center;" vertex="1" parent="1">
          <mxGeometry x="467" y="180" width="100" height="40" as="geometry" />
        </mxCell>
        <mxCell id="dDWBz8e4I7Z4TFTTQ-KN-47" value="PhoneNo" style="ellipse;whiteSpace=wrap;html=1;align=center;" vertex="1" parent="1">
          <mxGeometry x="467" y="480" width="100" height="40" as="geometry" />
        </mxCell>
        <mxCell id="dDWBz8e4I7Z4TFTTQ-KN-50" value="DateOfBirth" style="ellipse;whiteSpace=wrap;html=1;align=center;" vertex="1" parent="1">
          <mxGeometry x="240" y="420" width="100" height="40" as="geometry" />
        </mxCell>
        <mxCell id="dDWBz8e4I7Z4TFTTQ-KN-51" value="FName" style="ellipse;whiteSpace=wrap;html=1;align=center;" vertex="1" parent="1">
          <mxGeometry x="640.5" y="270" width="100" height="40" as="geometry" />
        </mxCell>
        <mxCell id="dDWBz8e4I7Z4TFTTQ-KN-52" value="MInit" style="ellipse;whiteSpace=wrap;html=1;align=center;" vertex="1" parent="1">
          <mxGeometry x="640.5" y="320" width="100" height="40" as="geometry" />
        </mxCell>
        <mxCell id="dDWBz8e4I7Z4TFTTQ-KN-53" value="LName" style="ellipse;whiteSpace=wrap;html=1;align=center;" vertex="1" parent="1">
          <mxGeometry x="640.5" y="370" width="100" height="40" as="geometry" />
        </mxCell>
        <mxCell id="dDWBz8e4I7Z4TFTTQ-KN-60" style="rounded=0;orthogonalLoop=1;jettySize=auto;html=1;exitX=0.25;exitY=0;exitDx=0;exitDy=0;entryX=1;entryY=0.5;entryDx=0;entryDy=0;endArrow=none;endFill=0;" edge="1" parent="1" source="dDWBz8e4I7Z4TFTTQ-KN-58" target="dDWBz8e4I7Z4TFTTQ-KN-59">
          <mxGeometry relative="1" as="geometry" />
        </mxCell>
        <mxCell id="dDWBz8e4I7Z4TFTTQ-KN-62" style="rounded=0;orthogonalLoop=1;jettySize=auto;html=1;exitX=0.75;exitY=0;exitDx=0;exitDy=0;entryX=0;entryY=0.5;entryDx=0;entryDy=0;endArrow=none;endFill=0;" edge="1" parent="1" source="dDWBz8e4I7Z4TFTTQ-KN-58" target="dDWBz8e4I7Z4TFTTQ-KN-61">
          <mxGeometry relative="1" as="geometry" />
        </mxCell>
        <mxCell id="dDWBz8e4I7Z4TFTTQ-KN-64" style="rounded=0;orthogonalLoop=1;jettySize=auto;html=1;exitX=0.75;exitY=1;exitDx=0;exitDy=0;entryX=0;entryY=0.5;entryDx=0;entryDy=0;endArrow=none;endFill=0;" edge="1" parent="1" source="dDWBz8e4I7Z4TFTTQ-KN-58" target="dDWBz8e4I7Z4TFTTQ-KN-63">
          <mxGeometry relative="1" as="geometry" />
        </mxCell>
        <mxCell id="dDWBz8e4I7Z4TFTTQ-KN-66" style="rounded=0;orthogonalLoop=1;jettySize=auto;html=1;exitX=0.25;exitY=1;exitDx=0;exitDy=0;entryX=1;entryY=0.5;entryDx=0;entryDy=0;endArrow=none;endFill=0;" edge="1" parent="1" source="dDWBz8e4I7Z4TFTTQ-KN-58" target="dDWBz8e4I7Z4TFTTQ-KN-65">
          <mxGeometry relative="1" as="geometry" />
        </mxCell>
        <mxCell id="dDWBz8e4I7Z4TFTTQ-KN-126" style="edgeStyle=none;orthogonalLoop=1;jettySize=auto;html=1;exitX=0.5;exitY=0;exitDx=0;exitDy=0;entryX=0.5;entryY=1;entryDx=0;entryDy=0;endArrow=none;endFill=0;strokeColor=#000000;" edge="1" parent="1" source="dDWBz8e4I7Z4TFTTQ-KN-58" target="dDWBz8e4I7Z4TFTTQ-KN-125">
          <mxGeometry relative="1" as="geometry" />
        </mxCell>
        <mxCell id="dDWBz8e4I7Z4TFTTQ-KN-134" style="edgeStyle=none;orthogonalLoop=1;jettySize=auto;html=1;exitX=0;exitY=0.5;exitDx=0;exitDy=0;entryX=1;entryY=0.5;entryDx=0;entryDy=0;endArrow=none;endFill=0;strokeColor=#000000;" edge="1" parent="1" source="dDWBz8e4I7Z4TFTTQ-KN-58" target="dDWBz8e4I7Z4TFTTQ-KN-133">
          <mxGeometry relative="1" as="geometry" />
        </mxCell>
        <mxCell id="dDWBz8e4I7Z4TFTTQ-KN-58" value="&lt;div&gt;CLASS&lt;/div&gt;" style="whiteSpace=wrap;html=1;align=center;fillColor=#f5f5f5;strokeColor=#666666;fontColor=#333333;" vertex="1" parent="1">
          <mxGeometry x="-50" y="480" width="100" height="40" as="geometry" />
        </mxCell>
        <mxCell id="dDWBz8e4I7Z4TFTTQ-KN-59" value="Name" style="ellipse;whiteSpace=wrap;html=1;align=center;" vertex="1" parent="1">
          <mxGeometry x="-150" y="420" width="100" height="40" as="geometry" />
        </mxCell>
        <mxCell id="dDWBz8e4I7Z4TFTTQ-KN-61" value="Price" style="ellipse;whiteSpace=wrap;html=1;align=center;" vertex="1" parent="1">
          <mxGeometry x="50" y="420" width="100" height="40" as="geometry" />
        </mxCell>
        <mxCell id="dDWBz8e4I7Z4TFTTQ-KN-63" value="Type" style="ellipse;whiteSpace=wrap;html=1;align=center;" vertex="1" parent="1">
          <mxGeometry x="50" y="540" width="100" height="40" as="geometry" />
        </mxCell>
        <mxCell id="dDWBz8e4I7Z4TFTTQ-KN-65" value="ClassDateTime" style="ellipse;whiteSpace=wrap;html=1;align=center;" vertex="1" parent="1">
          <mxGeometry x="-150" y="540" width="100" height="40" as="geometry" />
        </mxCell>
        <mxCell id="dDWBz8e4I7Z4TFTTQ-KN-67" style="rounded=0;orthogonalLoop=1;jettySize=auto;html=1;entryX=1;entryY=0.5;entryDx=0;entryDy=0;exitX=0.25;exitY=1;exitDx=0;exitDy=0;endArrow=none;endFill=0;" edge="1" parent="1" source="dDWBz8e4I7Z4TFTTQ-KN-71" target="dDWBz8e4I7Z4TFTTQ-KN-72">
          <mxGeometry relative="1" as="geometry" />
        </mxCell>
        <mxCell id="dDWBz8e4I7Z4TFTTQ-KN-68" style="rounded=0;orthogonalLoop=1;jettySize=auto;html=1;exitX=0.25;exitY=0;exitDx=0;exitDy=0;entryX=1;entryY=0.5;entryDx=0;entryDy=0;endArrow=none;endFill=0;" edge="1" parent="1" source="dDWBz8e4I7Z4TFTTQ-KN-71" target="dDWBz8e4I7Z4TFTTQ-KN-73">
          <mxGeometry relative="1" as="geometry" />
        </mxCell>
        <mxCell id="dDWBz8e4I7Z4TFTTQ-KN-69" style="rounded=0;orthogonalLoop=1;jettySize=auto;html=1;exitX=0.75;exitY=0;exitDx=0;exitDy=0;entryX=0;entryY=0.5;entryDx=0;entryDy=0;endArrow=none;endFill=0;" edge="1" parent="1" source="dDWBz8e4I7Z4TFTTQ-KN-71" target="dDWBz8e4I7Z4TFTTQ-KN-74">
          <mxGeometry relative="1" as="geometry" />
        </mxCell>
        <mxCell id="dDWBz8e4I7Z4TFTTQ-KN-70" style="rounded=0;orthogonalLoop=1;jettySize=auto;html=1;entryX=0;entryY=0.5;entryDx=0;entryDy=0;exitX=0.75;exitY=1;exitDx=0;exitDy=0;endArrow=none;endFill=0;" edge="1" parent="1" source="dDWBz8e4I7Z4TFTTQ-KN-71" target="dDWBz8e4I7Z4TFTTQ-KN-145">
          <mxGeometry relative="1" as="geometry">
            <mxPoint x="467.0000000000023" y="847.5" as="targetPoint" />
          </mxGeometry>
        </mxCell>
        <mxCell id="dDWBz8e4I7Z4TFTTQ-KN-117" style="edgeStyle=none;orthogonalLoop=1;jettySize=auto;html=1;exitX=0.5;exitY=1;exitDx=0;exitDy=0;entryX=0.5;entryY=0;entryDx=0;entryDy=0;endArrow=none;endFill=0;strokeColor=#000000;" edge="1" parent="1" source="dDWBz8e4I7Z4TFTTQ-KN-71" target="dDWBz8e4I7Z4TFTTQ-KN-80">
          <mxGeometry relative="1" as="geometry" />
        </mxCell>
        <mxCell id="dDWBz8e4I7Z4TFTTQ-KN-129" style="edgeStyle=none;orthogonalLoop=1;jettySize=auto;html=1;exitX=0;exitY=0.5;exitDx=0;exitDy=0;entryX=1;entryY=1;entryDx=0;entryDy=0;endArrow=none;endFill=0;strokeColor=#000000;" edge="1" parent="1" source="dDWBz8e4I7Z4TFTTQ-KN-71" target="dDWBz8e4I7Z4TFTTQ-KN-128">
          <mxGeometry relative="1" as="geometry" />
        </mxCell>
        <mxCell id="dDWBz8e4I7Z4TFTTQ-KN-140" style="edgeStyle=none;orthogonalLoop=1;jettySize=auto;html=1;exitX=1;exitY=0.5;exitDx=0;exitDy=0;endArrow=none;endFill=0;strokeColor=#000000;" edge="1" parent="1" source="dDWBz8e4I7Z4TFTTQ-KN-71" target="dDWBz8e4I7Z4TFTTQ-KN-138">
          <mxGeometry relative="1" as="geometry" />
        </mxCell>
        <mxCell id="dDWBz8e4I7Z4TFTTQ-KN-71" value="PURCHASE" style="whiteSpace=wrap;html=1;align=center;fillColor=#f5f5f5;strokeColor=#666666;fontColor=#333333;" vertex="1" parent="1">
          <mxGeometry x="367" y="760" width="100" height="40" as="geometry" />
        </mxCell>
        <mxCell id="dDWBz8e4I7Z4TFTTQ-KN-72" value="PurchID" style="ellipse;whiteSpace=wrap;html=1;align=center;fontStyle=4;" vertex="1" parent="1">
          <mxGeometry x="267" y="825" width="100" height="40" as="geometry" />
        </mxCell>
        <mxCell id="dDWBz8e4I7Z4TFTTQ-KN-73" value="PurchDateTime" style="ellipse;whiteSpace=wrap;html=1;align=center;" vertex="1" parent="1">
          <mxGeometry x="267" y="700" width="100" height="40" as="geometry" />
        </mxCell>
        <mxCell id="dDWBz8e4I7Z4TFTTQ-KN-74" value="TotalPrice" style="ellipse;whiteSpace=wrap;html=1;align=center;" vertex="1" parent="1">
          <mxGeometry x="467" y="700" width="100" height="40" as="geometry" />
        </mxCell>
        <mxCell id="dDWBz8e4I7Z4TFTTQ-KN-80" value="MemID" style="ellipse;whiteSpace=wrap;html=1;align=center;" vertex="1" parent="1">
          <mxGeometry x="362" y="860" width="110" height="45" as="geometry" />
        </mxCell>
        <mxCell id="dDWBz8e4I7Z4TFTTQ-KN-83" value="MemNo" style="ellipse;whiteSpace=wrap;html=1;align=center;fontStyle=4;" vertex="1" parent="1">
          <mxGeometry x="607.5" y="650" width="100" height="40" as="geometry" />
        </mxCell>
        <mxCell id="dDWBz8e4I7Z4TFTTQ-KN-84" value="IndClassesPurchased" style="ellipse;whiteSpace=wrap;html=1;align=center;" vertex="1" parent="1">
          <mxGeometry x="837.5" y="680" width="140" height="40" as="geometry" />
        </mxCell>
        <mxCell id="dDWBz8e4I7Z4TFTTQ-KN-97" style="rounded=0;orthogonalLoop=1;jettySize=auto;html=1;exitX=0.25;exitY=0;exitDx=0;exitDy=0;entryX=1;entryY=0.5;entryDx=0;entryDy=0;endArrow=none;endFill=0;" edge="1" parent="1" source="dDWBz8e4I7Z4TFTTQ-KN-90" target="dDWBz8e4I7Z4TFTTQ-KN-96">
          <mxGeometry relative="1" as="geometry" />
        </mxCell>
        <mxCell id="dDWBz8e4I7Z4TFTTQ-KN-98" style="rounded=0;orthogonalLoop=1;jettySize=auto;html=1;exitX=0.75;exitY=0;exitDx=0;exitDy=0;entryX=0;entryY=0.5;entryDx=0;entryDy=0;endArrow=none;endFill=0;" edge="1" parent="1" source="dDWBz8e4I7Z4TFTTQ-KN-90" target="dDWBz8e4I7Z4TFTTQ-KN-95">
          <mxGeometry relative="1" as="geometry" />
        </mxCell>
        <mxCell id="dDWBz8e4I7Z4TFTTQ-KN-99" style="rounded=0;orthogonalLoop=1;jettySize=auto;html=1;exitX=0.75;exitY=1;exitDx=0;exitDy=0;entryX=0;entryY=0.5;entryDx=0;entryDy=0;endArrow=none;endFill=0;" edge="1" parent="1" source="dDWBz8e4I7Z4TFTTQ-KN-90" target="dDWBz8e4I7Z4TFTTQ-KN-84">
          <mxGeometry relative="1" as="geometry" />
        </mxCell>
        <mxCell id="dDWBz8e4I7Z4TFTTQ-KN-101" style="rounded=0;orthogonalLoop=1;jettySize=auto;html=1;exitX=0.25;exitY=1;exitDx=0;exitDy=0;entryX=1;entryY=0.5;entryDx=0;entryDy=0;endArrow=none;endFill=0;" edge="1" parent="1" source="dDWBz8e4I7Z4TFTTQ-KN-90" target="dDWBz8e4I7Z4TFTTQ-KN-83">
          <mxGeometry relative="1" as="geometry" />
        </mxCell>
        <mxCell id="dDWBz8e4I7Z4TFTTQ-KN-137" style="edgeStyle=none;orthogonalLoop=1;jettySize=auto;html=1;exitX=0.5;exitY=0;exitDx=0;exitDy=0;entryX=0.5;entryY=1;entryDx=0;entryDy=0;endArrow=none;endFill=0;strokeColor=#000000;" edge="1" parent="1" source="dDWBz8e4I7Z4TFTTQ-KN-90" target="dDWBz8e4I7Z4TFTTQ-KN-135">
          <mxGeometry relative="1" as="geometry" />
        </mxCell>
        <mxCell id="dDWBz8e4I7Z4TFTTQ-KN-139" style="edgeStyle=none;orthogonalLoop=1;jettySize=auto;html=1;exitX=0.5;exitY=1;exitDx=0;exitDy=0;entryX=0.5;entryY=0;entryDx=0;entryDy=0;endArrow=none;endFill=0;strokeColor=#000000;" edge="1" parent="1" source="dDWBz8e4I7Z4TFTTQ-KN-90" target="dDWBz8e4I7Z4TFTTQ-KN-138">
          <mxGeometry relative="1" as="geometry" />
        </mxCell>
        <mxCell id="dDWBz8e4I7Z4TFTTQ-KN-90" value="SUPERFITREWARDS" style="whiteSpace=wrap;html=1;align=center;fillColor=#f5f5f5;strokeColor=#666666;fontColor=#333333;" vertex="1" parent="1">
          <mxGeometry x="707.5" y="590" width="141" height="40" as="geometry" />
        </mxCell>
        <mxCell id="dDWBz8e4I7Z4TFTTQ-KN-95" value="GroClassesPurchased" style="ellipse;whiteSpace=wrap;html=1;align=center;" vertex="1" parent="1">
          <mxGeometry x="837.5" y="490" width="150" height="40" as="geometry" />
        </mxCell>
        <mxCell id="dDWBz8e4I7Z4TFTTQ-KN-96" value="Email" style="ellipse;whiteSpace=wrap;html=1;align=center;" vertex="1" parent="1">
          <mxGeometry x="607.5" y="530" width="100" height="40" as="geometry" />
        </mxCell>
        <mxCell id="dDWBz8e4I7Z4TFTTQ-KN-121" style="edgeStyle=none;orthogonalLoop=1;jettySize=auto;html=1;exitX=0.5;exitY=1;exitDx=0;exitDy=0;entryX=0.5;entryY=0;entryDx=0;entryDy=0;endArrow=none;endFill=0;strokeColor=#000000;" edge="1" parent="1" source="dDWBz8e4I7Z4TFTTQ-KN-119" target="dDWBz8e4I7Z4TFTTQ-KN-71">
          <mxGeometry relative="1" as="geometry" />
        </mxCell>
        <mxCell id="dDWBz8e4I7Z4TFTTQ-KN-119" value="MAKES" style="shape=rhombus;perimeter=rhombusPerimeter;whiteSpace=wrap;html=1;align=center;fillColor=#f5f5f5;strokeColor=#666666;fontColor=#333333;" vertex="1" parent="1">
          <mxGeometry x="357" y="580" width="120" height="60" as="geometry" />
        </mxCell>
        <mxCell id="dDWBz8e4I7Z4TFTTQ-KN-124" style="rounded=0;orthogonalLoop=1;jettySize=auto;html=1;exitX=1;exitY=0.5;exitDx=0;exitDy=0;endArrow=none;endFill=0;entryX=0;entryY=0.5;entryDx=0;entryDy=0;" edge="1" parent="1" source="dDWBz8e4I7Z4TFTTQ-KN-2">
          <mxGeometry relative="1" as="geometry">
            <mxPoint x="100" y="140" as="sourcePoint" />
            <mxPoint x="367" y="140" as="targetPoint" />
          </mxGeometry>
        </mxCell>
        <mxCell id="dDWBz8e4I7Z4TFTTQ-KN-127" style="edgeStyle=none;orthogonalLoop=1;jettySize=auto;html=1;exitX=0.5;exitY=0;exitDx=0;exitDy=0;entryX=0.5;entryY=1;entryDx=0;entryDy=0;endArrow=none;endFill=0;strokeColor=#000000;" edge="1" parent="1" source="dDWBz8e4I7Z4TFTTQ-KN-125" target="dDWBz8e4I7Z4TFTTQ-KN-2">
          <mxGeometry relative="1" as="geometry" />
        </mxCell>
        <mxCell id="dDWBz8e4I7Z4TFTTQ-KN-125" value="TAKES_PLACE_AT" style="shape=rhombus;perimeter=rhombusPerimeter;whiteSpace=wrap;html=1;align=center;fillColor=#f5f5f5;strokeColor=#666666;fontColor=#333333;" vertex="1" parent="1">
          <mxGeometry x="-79.5" y="280" width="159" height="60" as="geometry" />
        </mxCell>
        <mxCell id="dDWBz8e4I7Z4TFTTQ-KN-130" style="edgeStyle=none;orthogonalLoop=1;jettySize=auto;html=1;exitX=0;exitY=0;exitDx=0;exitDy=0;entryX=0.5;entryY=1;entryDx=0;entryDy=0;endArrow=none;endFill=0;strokeColor=#000000;" edge="1" parent="1" source="dDWBz8e4I7Z4TFTTQ-KN-128" target="dDWBz8e4I7Z4TFTTQ-KN-58">
          <mxGeometry relative="1" as="geometry" />
        </mxCell>
        <mxCell id="dDWBz8e4I7Z4TFTTQ-KN-128" value="FOR" style="shape=rhombus;perimeter=rhombusPerimeter;whiteSpace=wrap;html=1;align=center;fillColor=#f5f5f5;strokeColor=#666666;fontColor=#333333;" vertex="1" parent="1">
          <mxGeometry x="31" y="670" width="120" height="60" as="geometry" />
        </mxCell>
        <mxCell id="dDWBz8e4I7Z4TFTTQ-KN-133" value="ClassID" style="ellipse;whiteSpace=wrap;html=1;align=center;fontStyle=4;" vertex="1" parent="1">
          <mxGeometry x="-179.5" y="480" width="100" height="40" as="geometry" />
        </mxCell>
        <mxCell id="dDWBz8e4I7Z4TFTTQ-KN-135" value="SIGNS_UP_FOR" style="shape=rhombus;perimeter=rhombusPerimeter;whiteSpace=wrap;html=1;align=center;fillColor=#f5f5f5;strokeColor=#666666;fontColor=#333333;" vertex="1" parent="1">
          <mxGeometry x="717.5" y="410" width="120" height="60" as="geometry" />
        </mxCell>
        <mxCell id="dDWBz8e4I7Z4TFTTQ-KN-138" value="RECORDED_FOR" style="shape=rhombus;perimeter=rhombusPerimeter;whiteSpace=wrap;html=1;align=center;fillColor=#f5f5f5;strokeColor=#666666;fontColor=#333333;" vertex="1" parent="1">
          <mxGeometry x="707.5" y="750" width="140.5" height="60" as="geometry" />
        </mxCell>
        <mxCell id="dDWBz8e4I7Z4TFTTQ-KN-141" value="Build. Name/Number" style="ellipse;whiteSpace=wrap;html=1;align=center;" vertex="1" parent="1">
          <mxGeometry x="100" y="330" width="150" height="40" as="geometry" />
        </mxCell>
        <mxCell id="dDWBz8e4I7Z4TFTTQ-KN-142" value="PostCode" style="ellipse;whiteSpace=wrap;html=1;align=center;" vertex="1" parent="1">
          <mxGeometry x="140" y="380" width="100" height="40" as="geometry" />
        </mxCell>
        <mxCell id="dDWBz8e4I7Z4TFTTQ-KN-145" value="ClassesPurchased" style="ellipse;shape=doubleEllipse;margin=3;whiteSpace=wrap;html=1;align=center;" vertex="1" parent="1">
          <mxGeometry x="472" y="830" width="123" height="40" as="geometry" />
        </mxCell>
        <mxCell id="dDWBz8e4I7Z4TFTTQ-KN-150" value="MEMBER_OF" style="shape=rhombus;perimeter=rhombusPerimeter;whiteSpace=wrap;html=1;align=center;fillColor=#f5f5f5;strokeColor=#666666;fontColor=#333333;" vertex="1" parent="1">
          <mxGeometry x="350.5" y="110" width="133" height="60" as="geometry" />
        </mxCell>
        <mxCell id="dDWBz8e4I7Z4TFTTQ-KN-151" value="(1:1)" style="text;html=1;align=center;verticalAlign=middle;resizable=0;points=[];autosize=1;" vertex="1" parent="1">
          <mxGeometry x="180" y="110" width="40" height="20" as="geometry" />
        </mxCell>
        <mxCell id="dDWBz8e4I7Z4TFTTQ-KN-152" value="(1:N)" style="text;html=1;align=center;verticalAlign=middle;resizable=0;points=[];autosize=1;" vertex="1" parent="1">
          <mxGeometry x="420" y="290" width="40" height="20" as="geometry" />
        </mxCell>
        <mxCell id="dDWBz8e4I7Z4TFTTQ-KN-153" value="(0:1)" style="text;html=1;align=center;verticalAlign=middle;resizable=0;points=[];autosize=1;" vertex="1" parent="1">
          <mxGeometry x="560" y="420" width="40" height="20" as="geometry" />
        </mxCell>
        <mxCell id="dDWBz8e4I7Z4TFTTQ-KN-154" value="(1:1)" style="text;html=1;align=center;verticalAlign=middle;resizable=0;points=[];autosize=1;" vertex="1" parent="1">
          <mxGeometry x="780" y="510" width="40" height="20" as="geometry" />
        </mxCell>
        <mxCell id="dDWBz8e4I7Z4TFTTQ-KN-155" value="(0:N)" style="text;html=1;align=center;verticalAlign=middle;resizable=0;points=[];autosize=1;" vertex="1" parent="1">
          <mxGeometry x="374" y="520" width="40" height="20" as="geometry" />
        </mxCell>
        <mxCell id="dDWBz8e4I7Z4TFTTQ-KN-156" value="(0:N)" style="text;html=1;align=center;verticalAlign=middle;resizable=0;points=[];autosize=1;" vertex="1" parent="1">
          <mxGeometry x="374" y="680" width="40" height="20" as="geometry" />
        </mxCell>
        <mxCell id="dDWBz8e4I7Z4TFTTQ-KN-157" value="(1:N)" style="text;html=1;align=center;verticalAlign=middle;resizable=0;points=[];autosize=1;" vertex="1" parent="1">
          <mxGeometry x="200" y="750" width="40" height="20" as="geometry" />
        </mxCell>
        <mxCell id="dDWBz8e4I7Z4TFTTQ-KN-158" value="(1:1)" style="text;html=1;align=center;verticalAlign=middle;resizable=0;points=[];autosize=1;" vertex="1" parent="1">
          <mxGeometry x="-9" y="610" width="40" height="20" as="geometry" />
        </mxCell>
        <mxCell id="dDWBz8e4I7Z4TFTTQ-KN-159" value="(1:1)" style="text;html=1;align=center;verticalAlign=middle;resizable=0;points=[];autosize=1;" vertex="1" parent="1">
          <mxGeometry y="390" width="40" height="20" as="geometry" />
        </mxCell>
        <mxCell id="dDWBz8e4I7Z4TFTTQ-KN-160" value="(1:1)" style="text;html=1;align=center;verticalAlign=middle;resizable=0;points=[];autosize=1;" vertex="1" parent="1">
          <mxGeometry y="230" width="40" height="20" as="geometry" />
        </mxCell>
      </root>
    </mxGraphModel>
  </diagram>
</mxfile>
